<svg width="36" height="36" viewBox="0 0 36 36" fill="none" xmlns="http://www.w3.org/2000/svg">
<path d="M31.5 24.8399V7.75494C31.5 5.95494 30.0301 4.61993 28.245 4.76993H28.155C25.005 5.03993 20.22 6.64493 17.55 8.32493L17.295 8.48993C16.86 8.75993 16.14 8.75993 15.705 8.48993L15.33 8.26493C12.66 6.59993 7.89003 4.99993 4.74003 4.75493C2.95503 4.60493 1.5 5.95494 1.5 7.73994V24.8399C1.5 26.2799 2.67003 27.6299 4.11003 27.8099L4.545 27.8699C7.80003 28.3049 12.825 29.9549 15.705 31.5299L15.765 31.5599C16.17 31.7849 16.815 31.7849 17.205 31.5599C20.085 29.9699 25.125 28.3049 28.395 27.8699L28.89 27.8099C30.33 27.6299 31.5 26.2799 31.5 24.8399Z" stroke="#454558" stroke-width="1.5" stroke-linecap="round" stroke-linejoin="round"/>
<path d="M18 8.73506V30.2351" stroke="#454558" stroke-width="1.5" stroke-linecap="round" stroke-linejoin="round"/>
<path d="M11.625 13.2351H8.25" stroke="#666FE8" stroke-width="1.5" stroke-linecap="round" stroke-linejoin="round"/>
<path d="M12.75 17.7351H8.25" stroke="#666FE8" stroke-width="1.5" stroke-linecap="round" stroke-linejoin="round"/>
</svg>
